<svg width="40" height="40" viewBox="0 0 40 40" fill="none" xmlns="http://www.w3.org/2000/svg">
<path d="M29.8442 9.26668L21.0736 0.526679C20.7872 0.238 20.398 0.0748592 19.9914 0.0731339C19.5848 0.0714087 19.1942 0.23124 18.9054 0.517479L18.8962 0.526679L10.1562 9.26668H1.60023C1.19356 9.26668 0.803553 9.42823 0.515997 9.71578C0.228442 10.0033 0.0668945 10.3933 0.0668945 10.8V38.4C0.0668945 38.8067 0.228442 39.1967 0.515997 39.4842C0.803553 39.7718 1.19356 39.9333 1.60023 39.9333H38.4002C38.8069 39.9333 39.1969 39.7718 39.4845 39.4842C39.772 39.1967 39.9336 38.8067 39.9336 38.4V10.8C39.9336 10.3933 39.772 10.0033 39.4845 9.71578C39.1969 9.42823 38.8069 9.26668 38.4002 9.26668H29.8442ZM20.0002 3.77735L25.4896 9.26668H14.5109L20.0002 3.77735ZM36.8669 36.8667H3.13356V12.3333H36.8669V36.8667ZM12.3336 21.5333C11.5202 21.5333 10.7402 21.2103 10.1651 20.6351C9.58999 20.06 9.2669 19.28 9.2669 18.4667C9.2669 17.6533 9.58999 16.8733 10.1651 16.2982C10.7402 15.7231 11.5202 15.4 12.3336 15.4C13.1469 15.4 13.9269 15.7231 14.502 16.2982C15.0771 16.8733 15.4002 17.6533 15.4002 18.4667C15.4002 19.28 15.0771 20.06 14.502 20.6351C13.9269 21.2103 13.1469 21.5333 12.3336 21.5333ZM33.8002 33.8H10.8002L15.4002 24.6L19.2336 32.2667L26.1336 18.4667L33.8002 33.8Z" fill="black"/>
</svg>
